<?xml version="1.0" encoding="UTF-8"?>
<!DOCTYPE svg PUBLIC "-//W3C//DTD SVG 1.1//EN" "http://www.w3.org/Graphics/SVG/1.1/DTD/svg11.dtd">
<!-- Creator: CorelDRAW X7 -->
<svg xmlns="http://www.w3.org/2000/svg" xml:space="preserve" width="93.3552mm" height="83.4457mm" version="1.1" style="shape-rendering:geometricPrecision; text-rendering:geometricPrecision; image-rendering:optimizeQuality; fill-rule:evenodd; clip-rule:evenodd"
viewBox="0 0 9335 8345"
 xmlns:xlink="http://www.w3.org/1999/xlink">
 <defs>
  <style type="text/css">
   <![CDATA[
    .fil3 {fill:#FEFEFE}
    .fil1 {fill:#6B809B}
    .fil0 {fill:#4D4D4D}
    .fil2 {fill:#5EACDA}
    .fil4 {fill:#4D4D4D;fill-rule:nonzero}
    .fil5 {fill:#5EACDA;fill-rule:nonzero}
   ]]>
  </style>
 </defs>
 <g id="Camada_x0020_1">
  <metadata id="CorelCorpID_0Corel-Layer"/>
  <g id="_360225168">
   <path class="fil0" d="M3704 3693c15,69 33,115 127,95 54,-12 110,-126 137,-167 29,-46 96,-138 113,-182l205 128c-43,114 -229,282 -203,402 15,70 83,63 134,52 32,-7 224,-321 234,-345l205 128 -299 474 -945 -608 301 -466 203 127c-23,61 -221,318 -212,362zm2097 -3673l77 -17c47,-6 95,-3 141,9 74,20 525,309 573,369 28,36 50,76 64,120l17 77c6,53 1,107 -15,158 -23,73 -173,311 -208,348 69,82 3,146 -62,248 -46,71 -312,496 -339,525 30,100 52,59 -61,235l-1131 1770c-45,70 -385,625 -422,633l-3 1 -20 4c-50,11 -48,6 -102,-29l-831 -531c-53,-33 -98,-63 -151,-97 -105,-66 -125,-55 -145,-149 -8,-36 165,-285 194,-330 70,-110 136,-213 206,-323 138,-216 272,-425 410,-641l722 -1129c110,-171 83,-135 186,-148 14,-38 288,-457 334,-528 65,-103 95,-189 199,-160 19,-48 172,-285 228,-336 40,-36 88,-63 139,-79zm-1038 3622l-943 -600 1073 -1683 944 600 -1074 1683zm668 -2989l817 526 -366 578 -817 -526 366 -578zm171 -115c18,-45 82,-134 111,-179 54,-84 70,-140 174,-163 93,-20 226,88 320,148 52,33 96,61 147,94 73,46 107,68 127,158 17,76 -44,147 -77,198 -29,46 -85,145 -117,179l-685 -435z"/>
   <polygon class="fil1" points="4763,3642 5837,1959 4893,1359 3820,3042 "/>
   <path class="fil2" d="M3704 3693c-9,-44 189,-301 212,-362l-203 -127 -301 466 945 608 299 -474 -205 -128c-10,24 -202,338 -234,345 -51,11 -119,18 -134,-52 -26,-120 160,-288 203,-402l-205 -128c-17,44 -84,136 -113,182 -27,41 -83,155 -137,167 -94,20 -112,-26 -127,-95z"/>
   <polygon class="fil2" points="5065,1231 5882,1757 6248,1179 5431,653 "/>
   <path class="fil3" d="M5602 538l685 435c32,-34 88,-133 117,-179 33,-51 94,-122 77,-198 -20,-90 -54,-112 -127,-158l-147 -94c-94,-60 -227,-168 -320,-148 -104,23 -120,79 -174,163 -29,45 -93,134 -111,179z"/>
   <path class="fil4" d="M52 7308l407 148c96,720 1312,924 1304,-465 -185,217 -414,326 -689,326 -341,0 -606,-123 -793,-370 -188,-245 -281,-541 -281,-885 0,-237 43,-456 129,-656 85,-200 209,-354 372,-464 163,-109 355,-163 575,-163 293,0 535,119 725,359l0 -1 388 0 0 1841c0,387 -40,661 -118,822 -79,161 -204,289 -374,382 -694,380 -1668,96 -1645,-874zm379 -1276c0,325 65,562 194,711 130,149 292,224 487,224 194,0 356,-74 488,-222 131,-149 196,-382 196,-700 0,-303 -68,-532 -203,-686 -135,-154 -297,-231 -487,-231 -188,0 -347,76 -479,228 -130,151 -196,377 -196,676zm1975 1285l0 -3429 422 0 0 3429 -422 0zm2286 0l0 -370c-193,282 -455,423 -786,423 -146,0 -282,-28 -409,-84 -127,-57 -222,-127 -283,-212 -61,-85 -105,-189 -129,-312 -17,-83 -26,-214 -26,-392l0 -1233 422 0 0 1070c0,219 8,368 25,444 26,111 82,197 169,260 85,63 190,95 317,95 126,0 244,-32 354,-97 110,-64 189,-153 235,-264 45,-111 68,-273 68,-485l0 -1499 422 0 0 2656 -379 0zm2325 -805l435 -10c-41,287 -194,518 -380,658 -185,139 -421,210 -709,210 -363,0 -650,-112 -862,-336 -213,-222 -319,-536 -319,-939 0,-417 107,-741 322,-971 215,-230 493,-345 836,-345 331,0 602,112 811,338 210,226 316,544 316,953 0,25 -1,62 -3,112l-1851 0c16,272 82,492 220,637 139,144 323,206 530,206 154,0 297,-30 405,-111 110,-82 185,-223 249,-402zm-1380 -675l1384 0c-18,-209 -71,-365 -158,-470 -134,-162 -308,-244 -521,-244 -193,0 -355,65 -487,194 -131,130 -203,303 -218,520z"/>
   <path class="fil5" d="M6667 7574l287 -40c8,186 42,312 103,381 62,68 147,102 256,102 80,0 149,-18 207,-55 58,-37 99,-87 121,-150 22,-63 32,-165 32,-303l0 -1667 321 0 0 1648c0,202 -24,358 -73,470 -49,111 -126,195 -233,254 -105,58 -230,87 -372,87 -212,0 -375,-61 -487,-183 -113,-122 -167,-303 -162,-544zm1213 163l294 -47c16,117 62,207 138,270 75,63 181,94 316,94 137,0 238,-27 304,-83 66,-55 100,-120 100,-195 0,-67 -30,-120 -89,-158 -42,-27 -143,-60 -304,-101 -218,-55 -368,-102 -452,-142 -84,-41 -148,-96 -191,-167 -44,-70 -66,-148 -66,-234 0,-78 18,-150 54,-217 36,-66 84,-121 146,-165 46,-34 109,-63 188,-86 80,-24 165,-36 256,-36 138,0 258,20 362,60 104,39 181,94 230,161 49,68 83,159 102,273l-291 40c-12,-91 -51,-163 -114,-214 -63,-51 -152,-76 -267,-76 -136,0 -233,22 -291,67 -58,45 -87,98 -87,158 0,39 11,73 36,104 24,32 61,58 113,79 30,12 117,37 262,76 209,56 356,102 439,138 83,35 149,87 196,155 48,68 71,153 71,254 0,98 -28,191 -86,279 -58,87 -142,154 -250,202 -109,48 -233,72 -370,72 -227,0 -401,-48 -521,-142 -119,-94 -195,-234 -228,-419z"/>
  </g>
 </g>
</svg>
